<?xml version="1.0" encoding="utf-8"?>
<!-- Generator: Adobe Illustrator 16.0.0, SVG Export Plug-In . SVG Version: 6.00 Build 0)  -->
<!DOCTYPE svg PUBLIC "-//W3C//DTD SVG 1.1//EN" "http://www.w3.org/Graphics/SVG/1.1/DTD/svg11.dtd">
<svg version="1.1" id="Layer_1" xmlns="http://www.w3.org/2000/svg" xmlns:xlink="http://www.w3.org/1999/xlink" x="0px" y="0px"
	 width="66px" height="66px" viewBox="0 0 66 66" enable-background="new 0 0 66 66" xml:space="preserve">
<g>
	<path fill="#093C84" d="M48.418,9.459c0,0.69-0.559,1.25-1.248,1.25h-8.418c-0.689,0-1.25-0.56-1.25-1.25l0,0
		c0-0.69,0.561-1.25,1.25-1.25h8.418C47.859,8.209,48.418,8.769,48.418,9.459L48.418,9.459z"/>
	<g>
		<g>
			<g>
				<g>
					<g>
						<path fill="#232728" d="M40.182,46.946c0,2.476-2.008,15.827-4.486,15.827c-2.475,0-4.482-13.352-4.482-15.827
							s2.008-4.484,4.482-4.484C38.174,42.462,40.182,44.471,40.182,46.946z"/>
						<path fill="#232728" d="M25.156,46.946c0,2.476-2.008,15.827-4.486,15.827c-2.475,0-4.482-13.352-4.482-15.827
							s2.008-4.484,4.482-4.484C23.148,42.462,25.156,44.471,25.156,46.946z"/>
						<path fill="#BC8158" d="M17.531,55.916c0.809,3.597,1.916,6.857,3.139,6.857c1.225,0,2.334-3.261,3.145-6.857H17.531z"/>
						<path fill="#BC8158" d="M32.557,55.916c0.809,3.597,1.916,6.857,3.139,6.857c1.225,0,2.334-3.261,3.145-6.857H32.557z"/>
					</g>
					<path fill="#DD3A14" d="M40.834,41.021c0,16.038-5.662,10.697-12.65,10.697c-6.986,0-12.65,5.341-12.65-10.697
						c0-9.17,5.666-16.603,12.65-16.603C35.17,24.419,40.834,31.852,40.834,41.021z"/>
					<path fill="#DD3A14" d="M32.545,28.208c1.432-1.273,4.229-0.465,6.25,1.805c2.018,2.27,10.793,14.475,9.365,15.75
						c-1.434,1.271-12.533-8.873-14.551-11.143C31.592,32.353,31.115,29.481,32.545,28.208z"/>
					<path fill="#BC2A0D" d="M28.184,45.219c-6.291,0-11.506,4.321-12.484-6.524c-0.107,0.648-0.166,1.414-0.166,2.327
						c0,16.038,5.664,10.697,12.65,10.697c6.988,0,12.65,5.341,12.65-10.697c0-0.913-0.059-1.679-0.166-2.327
						C39.691,49.54,34.477,45.219,28.184,45.219z"/>
					<g>
						<path fill="#EFA30C" d="M25.717,62.854c0,1.896-2.26,2.146-5.045,2.146s-5.045-0.249-5.045-2.146
							c0-1.897,2.26-4.508,5.045-4.508S25.717,60.957,25.717,62.854z"/>
						<path fill="#D68A05" d="M25.717,62.854c0,1.896-2.26,2.146-5.045,2.146s-5.045-0.249-5.045-2.146"/>
					</g>
					<g>
						<path fill="#EFA30C" d="M40.742,62.854c0,1.896-2.26,2.146-5.045,2.146s-5.045-0.249-5.045-2.146
							c0-1.897,2.26-4.508,5.045-4.508S40.742,60.957,40.742,62.854z"/>
						<path fill="#D68A05" d="M40.742,62.854c0,1.896-2.26,2.146-5.045,2.146s-5.045-0.249-5.045-2.146"/>
					</g>
					<g>
						<path fill="#DD3A14" d="M29.514,30.354c-0.113-1.912-2.662-3.318-5.695-3.143c-3.033,0.178-17.869,2.604-17.76,4.515
							c0.115,1.913,15.137,2.588,18.168,2.41C27.256,33.959,29.623,32.266,29.514,30.354z"/>
					</g>
					<circle fill="#A56B44" cx="28.184" cy="27.833" r="3.375"/>
					<g>
						<path fill="#C48960" d="M44.555,16.775c0,7.999-7.33,12.02-16.369,12.02c-9.041,0-16.373-4.021-16.373-12.02
							C11.812,8.774,19.145,1,28.186,1C37.225,1,44.555,8.774,44.555,16.775z"/>
						<path fill="#BC8158" d="M44.555,16.775c0,7.999-7.33,12.02-16.369,12.02c-9.041,0-16.373-4.021-16.373-12.02"/>
					</g>
					<g>
						<g>
							<circle fill="#113E49" cx="22.232" cy="19.403" r="1.465"/>
							<path d="M23.697,19.403c0,0.811-0.656,1.465-1.465,1.465s-1.465-0.654-1.465-1.465"/>
							<g>
								<path fill="#E5A376" d="M25.119,22.457c-0.076,0-0.156-0.028-0.217-0.091c-0.717-0.714-1.666-1.107-2.672-1.107h-0.002
									c-1.01,0-1.955,0.394-2.666,1.106c-0.121,0.121-0.316,0.124-0.436,0.001c-0.121-0.117-0.125-0.312-0.004-0.434
									c0.83-0.831,1.93-1.29,3.105-1.29h0.002c1.176,0,2.279,0.456,3.111,1.288c0.119,0.119,0.119,0.318,0,0.436
									C25.281,22.429,25.201,22.457,25.119,22.457z"/>
							</g>
						</g>
						<g>
							<circle fill="#113E49" cx="37.804" cy="19.403" r="1.464"/>
							<path d="M36.34,19.403c0,0.811,0.654,1.465,1.463,1.465c0.811,0,1.465-0.654,1.465-1.465"/>
							<g>
								<path fill="#E5A376" d="M34.916,22.457c0.076,0,0.156-0.028,0.217-0.091c0.715-0.714,1.664-1.107,2.67-1.107h0.004
									c1.008,0,1.957,0.394,2.668,1.106c0.119,0.121,0.314,0.124,0.436,0.001c0.121-0.117,0.123-0.312,0.002-0.434
									c-0.826-0.831-1.932-1.29-3.105-1.29h-0.004c-1.172,0-2.275,0.456-3.109,1.288c-0.117,0.119-0.117,0.318,0,0.436
									C34.756,22.429,34.834,22.457,34.916,22.457z"/>
							</g>
						</g>
					</g>
				</g>
			</g>
			<path fill="#7A0B0B" d="M34.344,23.216c0,1.652-1.83,2.992-4.094,2.992c-2.258,0-4.09-1.34-4.09-2.992
				c0-1.65,1.832-0.849,4.09-0.849C32.514,22.367,34.344,21.565,34.344,23.216z"/>
			<path fill="#AA1111" d="M27.082,25.087c0.75,0.678,1.883,1.121,3.168,1.121c1.289,0,2.422-0.442,3.172-1.121
				c-0.75-0.678-1.883-1.121-3.17-1.121S27.832,24.408,27.082,25.087z"/>
		</g>
	</g>
	<path fill="#1679DB" d="M14.623,8.25h27.123C38.803,4.028,33.826,1,28.186,1C22.543,1,17.568,4.028,14.623,8.25z"/>
	<path fill="#2B9BF7" d="M28.186,1c-5.643,0-10.617,3.028-13.562,7.25"/>
	<path d="M27.002,6.167C27.002,6.627,26.629,7,26.17,7h-3.336c-0.459,0-0.832-0.373-0.832-0.833l0,0c0-0.46,0.373-0.833,0.832-0.833
		h3.336C26.629,5.334,27.002,5.707,27.002,6.167L27.002,6.167z"/>
	<g>
		<g>
			<circle fill="#EF8A11" cx="50.859" cy="51.19" r="9.084"/>
			<path fill="#CC6D05" d="M57.281,44.768c3.549,3.547,3.549,9.298,0,12.846c-3.547,3.548-9.299,3.548-12.846,0"/>
		</g>
		<g>
			<path fill="#994C00" d="M43.727,45.577c1.338,1.492,2.158,3.457,2.158,5.613s-0.82,4.121-2.158,5.614
				c0.271,0.344,0.568,0.667,0.885,0.968c1.596-1.734,2.57-4.046,2.57-6.582s-0.975-4.848-2.57-6.582
				C44.295,44.91,43.998,45.233,43.727,45.577z"/>
			<path fill="#994C00" d="M55.834,51.19c0-2.156,0.818-4.121,2.156-5.613c-0.271-0.344-0.566-0.667-0.883-0.969
				c-1.596,1.734-2.572,4.046-2.572,6.582c0,2.463,0.918,4.778,2.576,6.578c0.314-0.299,0.607-0.62,0.877-0.961
				C56.6,55.259,55.834,53.286,55.834,51.19z"/>
			<path fill="#994C00" d="M41.775,51.19c0,0.22,0.018,0.434,0.033,0.648H59.91c0.016-0.215,0.033-0.429,0.033-0.648
				c0-0.219-0.018-0.434-0.033-0.648H41.809C41.793,50.757,41.775,50.972,41.775,51.19z"/>
			<path fill="#994C00" d="M50.211,42.14v18.102c0.215,0.016,0.43,0.032,0.648,0.032s0.434-0.017,0.648-0.032V42.14
				c-0.215-0.015-0.43-0.033-0.648-0.033S50.426,42.125,50.211,42.14z"/>
		</g>
	</g>
	<path fill="#FC7459" d="M35.4,39.731c0-0.151-0.014-0.301-0.023-0.449h-2.803c0.102-1.315,0.641-2.51,1.473-3.438
		c-0.188-0.238-0.391-0.462-0.611-0.671c-1.01,1.098-1.654,2.53-1.76,4.109h-2.117v-5.819c-0.15-0.011-0.299-0.023-0.451-0.023
		c-0.15,0-0.299,0.013-0.449,0.023v5.819h-2.119c-0.104-1.579-0.748-3.012-1.758-4.109c-0.221,0.209-0.426,0.433-0.613,0.671
		c0.832,0.929,1.371,2.123,1.475,3.438H22.84c-0.012,0.148-0.023,0.298-0.023,0.449c0,0.152,0.012,0.301,0.023,0.449h2.803
		c-0.104,1.315-0.643,2.51-1.475,3.439c0.188,0.238,0.393,0.462,0.613,0.67c1.01-1.098,1.654-2.53,1.758-4.109h2.119V46
		c0.15,0.011,0.299,0.022,0.449,0.022c0.152,0,0.301-0.012,0.451-0.022v-5.819h2.117c0.102,1.537,0.717,2.971,1.762,4.107
		c0.219-0.207,0.422-0.43,0.609-0.666c-0.863-0.961-1.375-2.158-1.473-3.441h2.803C35.387,40.032,35.4,39.884,35.4,39.731z"/>
</g>
</svg>
